#Comment line ignore any data following # character 
#Hierarchical Translation and Rotation (.htr) file 
[Header]	
#Header keywords are followed by a single value 
FileType HTR		#Single word string
DataType HTRS		#Translation followed by rotation and scale data
FileVersion 1		#integer
NumSegments 84		#integer
NumFrames 2		#integer
DataFrameRate 30		#integer, data frame rate in this file
EulerRotationOrder ZYX
CalibrationUnits mm
RotationUnits Degrees
GlobalAxisofGravity Y
BoneLengthAxis Y
ScaleFactor 1.00
[SegmentNames&Hierarchy]
#CHILD	PARENT
MASTER GLOBAL
root MASTER
chest root
L_mid_tent01 root
R_mid_tent01 root
spine01 root
Bip01_Neck chest
L_humerus chest
R_humerus chest
weapon_bone chest
Bip01_Head Bip01_Neck
eye_left_bone Bip01_Head
eye_right_bone Bip01_Head
L_forearm L_humerus
L_front_hand L_forearm
L_weapon_bone L_forearm
L_front_hand01_01 L_front_hand
L_front_hand02_01 L_front_hand
L_front_hand03_01 L_front_hand
L_front_hand01_02 L_front_hand01_01
L_front_hand02_02 L_front_hand02_01
L_front_hand03_02 L_front_hand03_01
R_forearm R_humerus
R_front_hand R_forearm
R_weapon_bone R_forearm
R_front_hand01_01 R_front_hand
R_front_hand02_01 R_front_hand
R_front_hand03_01 R_front_hand
R_front_hand01_02 R_front_hand01_01
R_front_hand02_02 R_front_hand02_01
R_front_hand03_02 R_front_hand03_01
null_rope01_connect L_mid_tent01
Rope1_Seg01 null_rope01_connect
Rope1_Seg02 Rope1_Seg01
Rope1_Seg03 Rope1_Seg02
Rope1_Seg04 Rope1_Seg03
Rope1_Seg05 Rope1_Seg04
Rope1_Seg06 Rope1_Seg05
Rope1_Seg07 Rope1_Seg06
Rope1_Seg09 Rope1_Seg07
L_mid_hand01 Rope1_Seg09
L_mid_hand02 Rope1_Seg09
L_mid_hand03 Rope1_Seg09
null_rope02_connect R_mid_tent01
Rope2_Seg01 null_rope02_connect
Rope2_Seg02 Rope2_Seg01
Rope2_Seg03 Rope2_Seg02
Rope2_Seg04 Rope2_Seg03
Rope2_Seg05 Rope2_Seg04
Rope2_Seg06 Rope2_Seg05
Rope2_Seg07 Rope2_Seg06
Rope2_Seg09 Rope2_Seg07
R_mid_hand01 Rope2_Seg09
R_mid_hand02 Rope2_Seg09
R_mid_hand03 Rope2_Seg09
spine02 spine01
spine03 spine02
pelvis spine03
null_rope03_connect pelvis
null_rope04_connect pelvis
Rope3_Seg01 null_rope03_connect
Rope3_Seg02 Rope3_Seg01
Rope3_Seg03 Rope3_Seg02
Rope3_Seg04 Rope3_Seg03
Rope3_Seg05 Rope3_Seg04
Rope3_Seg06 Rope3_Seg05
Rope3_Seg07 Rope3_Seg06
Rope3_Seg08 Rope3_Seg07
Rope3_Seg09 Rope3_Seg08
R_rear_hand01 Rope3_Seg09
R_rear_hand02 Rope3_Seg09
R_rear_hand03 Rope3_Seg09
Rope4_Seg01 null_rope04_connect
Rope4_Seg02 Rope4_Seg01
Rope4_Seg03 Rope4_Seg02
Rope4_Seg04 Rope4_Seg03
Rope4_Seg05 Rope4_Seg04
Rope4_Seg06 Rope4_Seg05
Rope4_Seg07 Rope4_Seg06
Rope4_Seg08 Rope4_Seg07
Rope4_Seg09 Rope4_Seg08
L_rear_hand01 Rope4_Seg09
L_rear_hand02 Rope4_Seg09
L_rear_hand03 Rope4_Seg09
[BasePosition]
#SegmentName Tx, Ty, Tz, Rx, Ry, Rz, BoneLength
MASTER 0.000000 0.000000 0.000000 -90.000000 0.000000 0.000000 10.000000 
root 0.000000 0.000000 0.000000 0.000000 0.000000 0.000000 10.000000 
chest 0.000000 0.000000 0.000000 0.000000 0.000000 0.000000 10.000000 
L_mid_tent01 0.000000 0.000000 0.000000 0.000000 0.000000 0.000000 10.000000 
R_mid_tent01 0.000000 0.000000 0.000000 0.000000 0.000000 0.000000 10.000000 
spine01 0.000000 0.000000 0.000000 0.000000 0.000000 0.000000 10.000000 
Bip01_Neck 0.000000 0.000000 0.000000 0.000000 0.000000 0.000000 10.000000 
L_humerus 0.000000 0.000000 0.000000 0.000000 0.000000 0.000000 10.000000 
R_humerus 0.000000 0.000000 0.000000 0.000000 0.000000 0.000000 10.000000 
weapon_bone 0.000000 0.000000 0.000000 0.000000 0.000000 0.000000 10.000000 
Bip01_Head 0.000000 0.000000 0.000000 0.000000 0.000000 0.000000 10.000000 
eye_left_bone 0.000000 0.000000 0.000000 0.000000 0.000000 0.000000 10.000000 
eye_right_bone 0.000000 0.000000 0.000000 0.000000 0.000000 0.000000 10.000000 
L_forearm 0.000000 0.000000 0.000000 0.000000 0.000000 0.000000 10.000000 
L_front_hand 0.000000 0.000000 0.000000 0.000000 0.000000 0.000000 10.000000 
L_weapon_bone 0.000000 0.000000 0.000000 0.000000 0.000000 0.000000 10.000000 
L_front_hand01_01 0.000000 0.000000 0.000000 0.000000 0.000000 0.000000 10.000000 
L_front_hand02_01 0.000000 0.000000 0.000000 0.000000 0.000000 0.000000 10.000000 
L_front_hand03_01 0.000000 0.000000 0.000000 0.000000 0.000000 0.000000 10.000000 
L_front_hand01_02 0.000000 0.000000 0.000000 0.000000 0.000000 0.000000 10.000000 
L_front_hand02_02 0.000000 0.000000 0.000000 0.000000 0.000000 0.000000 10.000000 
L_front_hand03_02 0.000000 0.000000 0.000000 0.000000 0.000000 0.000000 10.000000 
R_forearm 0.000000 0.000000 0.000000 0.000000 0.000000 0.000000 10.000000 
R_front_hand 0.000000 0.000000 0.000000 0.000000 0.000000 0.000000 10.000000 
R_weapon_bone 0.000000 0.000000 0.000000 0.000000 0.000000 0.000000 10.000000 
R_front_hand01_01 0.000000 0.000000 0.000000 0.000000 0.000000 0.000000 10.000000 
R_front_hand02_01 0.000000 0.000000 0.000000 0.000000 0.000000 0.000000 10.000000 
R_front_hand03_01 0.000000 0.000000 0.000000 0.000000 0.000000 0.000000 10.000000 
R_front_hand01_02 0.000000 0.000000 0.000000 0.000000 0.000000 0.000000 10.000000 
R_front_hand02_02 0.000000 0.000000 0.000000 0.000000 0.000000 0.000000 10.000000 
R_front_hand03_02 0.000000 0.000000 0.000000 0.000000 0.000000 0.000000 10.000000 
null_rope01_connect 0.000000 0.000000 0.000000 0.000000 0.000000 0.000000 10.000000 
Rope1_Seg01 0.000000 0.000000 0.000000 0.000000 0.000000 0.000000 10.000000 
Rope1_Seg02 0.000000 0.000000 0.000000 0.000000 0.000000 0.000000 10.000000 
Rope1_Seg03 0.000000 0.000000 0.000000 0.000000 0.000000 0.000000 10.000000 
Rope1_Seg04 0.000000 0.000000 0.000000 0.000000 0.000000 0.000000 10.000000 
Rope1_Seg05 0.000000 0.000000 0.000000 0.000000 0.000000 0.000000 10.000000 
Rope1_Seg06 0.000000 0.000000 0.000000 0.000000 0.000000 0.000000 10.000000 
Rope1_Seg07 0.000000 0.000000 0.000000 0.000000 0.000000 0.000000 10.000000 
Rope1_Seg09 0.000000 0.000000 0.000000 0.000000 0.000000 0.000000 10.000000 
L_mid_hand01 0.000000 0.000000 0.000000 0.000000 0.000000 0.000000 10.000000 
L_mid_hand02 0.000000 0.000000 0.000000 0.000000 0.000000 0.000000 10.000000 
L_mid_hand03 0.000000 0.000000 0.000000 0.000000 0.000000 0.000000 10.000000 
null_rope02_connect 0.000000 0.000000 0.000000 0.000000 0.000000 0.000000 10.000000 
Rope2_Seg01 0.000000 0.000000 0.000000 0.000000 0.000000 0.000000 10.000000 
Rope2_Seg02 0.000000 0.000000 0.000000 0.000000 0.000000 0.000000 10.000000 
Rope2_Seg03 0.000000 0.000000 0.000000 0.000000 0.000000 0.000000 10.000000 
Rope2_Seg04 0.000000 0.000000 0.000000 0.000000 0.000000 0.000000 10.000000 
Rope2_Seg05 0.000000 0.000000 0.000000 0.000000 0.000000 0.000000 10.000000 
Rope2_Seg06 0.000000 0.000000 0.000000 0.000000 0.000000 0.000000 10.000000 
Rope2_Seg07 0.000000 0.000000 0.000000 0.000000 0.000000 0.000000 10.000000 
Rope2_Seg09 0.000000 0.000000 0.000000 0.000000 0.000000 0.000000 10.000000 
R_mid_hand01 0.000000 0.000000 0.000000 0.000000 0.000000 0.000000 10.000000 
R_mid_hand02 0.000000 0.000000 0.000000 0.000000 0.000000 0.000000 10.000000 
R_mid_hand03 0.000000 0.000000 0.000000 0.000000 0.000000 0.000000 10.000000 
spine02 0.000000 0.000000 0.000000 0.000000 0.000000 0.000000 10.000000 
spine03 0.000000 0.000000 0.000000 0.000000 0.000000 0.000000 10.000000 
pelvis 0.000000 0.000000 0.000000 0.000000 0.000000 0.000000 10.000000 
null_rope03_connect 0.000000 0.000000 0.000000 0.000000 0.000000 0.000000 10.000000 
null_rope04_connect 0.000000 0.000000 0.000000 0.000000 0.000000 0.000000 10.000000 
Rope3_Seg01 0.000000 0.000000 0.000000 0.000000 0.000000 0.000000 10.000000 
Rope3_Seg02 0.000000 0.000000 0.000000 0.000000 0.000000 0.000000 10.000000 
Rope3_Seg03 0.000000 0.000000 0.000000 0.000000 0.000000 0.000000 10.000000 
Rope3_Seg04 0.000000 0.000000 0.000000 0.000000 0.000000 0.000000 10.000000 
Rope3_Seg05 0.000000 0.000000 0.000000 0.000000 0.000000 0.000000 10.000000 
Rope3_Seg06 0.000000 0.000000 0.000000 0.000000 0.000000 0.000000 10.000000 
Rope3_Seg07 0.000000 0.000000 0.000000 0.000000 0.000000 0.000000 10.000000 
Rope3_Seg08 0.000000 0.000000 0.000000 0.000000 0.000000 0.000000 10.000000 
Rope3_Seg09 0.000000 0.000000 0.000000 0.000000 0.000000 0.000000 10.000000 
R_rear_hand01 0.000000 0.000000 0.000000 0.000000 0.000000 0.000000 10.000000 
R_rear_hand02 0.000000 0.000000 0.000000 0.000000 0.000000 0.000000 10.000000 
R_rear_hand03 0.000000 0.000000 0.000000 0.000000 0.000000 0.000000 10.000000 
Rope4_Seg01 0.000000 0.000000 0.000000 0.000000 0.000000 0.000000 10.000000 
Rope4_Seg02 0.000000 0.000000 0.000000 0.000000 0.000000 0.000000 10.000000 
Rope4_Seg03 0.000000 0.000000 0.000000 0.000000 0.000000 0.000000 10.000000 
Rope4_Seg04 0.000000 0.000000 0.000000 0.000000 0.000000 0.000000 10.000000 
Rope4_Seg05 0.000000 0.000000 0.000000 0.000000 0.000000 0.000000 10.000000 
Rope4_Seg06 0.000000 0.000000 0.000000 0.000000 0.000000 0.000000 10.000000 
Rope4_Seg07 0.000000 0.000000 0.000000 0.000000 0.000000 0.000000 10.000000 
Rope4_Seg08 0.000000 0.000000 0.000000 0.000000 0.000000 0.000000 10.000000 
Rope4_Seg09 0.000000 0.000000 0.000000 0.000000 0.000000 0.000000 10.000000 
L_rear_hand01 0.000000 0.000000 0.000000 0.000000 0.000000 0.000000 10.000000 
L_rear_hand02 0.000000 0.000000 0.000000 0.000000 0.000000 0.000000 10.000000 
L_rear_hand03 0.000000 0.000000 0.000000 0.000000 0.000000 0.000000 10.000000 
#Beginning of Data. Separated by tabs
#Fr	Tx	Ty	Tz	Rx	Ry	Rz	SF
[MASTER]
38 -0.000598 3942.812500 2898.671387 0.001660 0.001660 0.001660 4893.676270
39 -0.000599 3971.778076 2948.679688 0.001660 0.001660 0.001660 4946.688965
[root]
38 -16.502132 3.069170 1452.635376 -91.719582 -12.981930 -89.491562 1452.732422
39 -16.502131 7.678846 1449.471313 -91.727180 -11.958741 -89.474663 1449.585571
[chest]
38 -84.512650 -34.090519 0.000000 -2.145325 0.138449 170.005890 91.129311
39 -84.512650 -34.090519 0.000000 -2.160391 0.061138 169.133087 91.129311
[L_mid_tent01]
38 27.298899 22.178963 -249.918625 -22.545719 12.119208 11.352981 252.381577
39 27.298893 22.178959 -249.918625 -21.602556 12.079152 12.168971 252.381577
[R_mid_tent01]
38 23.228794 24.509907 226.238495 -161.259598 -17.691515 19.769913 228.744751
39 23.228794 24.509907 226.238495 -163.340637 -17.945103 22.111752 228.744751
[spine01]
38 -0.361383 -0.195265 0.000000 0.001963 0.001287 23.489672 0.410763
39 -0.361383 -0.195265 0.000000 0.001954 0.001300 22.747595 0.410763
[Bip01_Neck]
38 165.484543 71.581718 0.000119 176.643677 -1.657967 43.431911 180.302734
39 165.484543 71.581718 0.000119 176.643677 -1.657967 43.431911 180.302734
[L_humerus]
38 -13.983130 -135.272980 -120.471481 -5.480129 68.873367 84.573456 181.680161
39 -13.983130 -135.272980 -120.471481 -5.480129 68.873367 84.573456 181.680161
[R_humerus]
38 -13.983309 -135.273102 125.287651 27.830740 -69.921516 67.902298 184.909012
39 -13.983309 -135.273102 125.287651 27.830740 -69.921516 67.902298 184.909012
[weapon_bone]
38 235.964890 -300.705902 0.000000 0.000000 -89.951546 -128.212341 382.234833
39 235.964890 -300.705902 0.000000 0.000000 -89.951546 -128.212341 382.234833
[Bip01_Head]
38 213.326645 186.042099 7.559219 5.200446 6.151311 -43.834991 283.155548
39 213.326523 186.041977 7.559211 5.200446 6.151311 -43.834991 283.155365
[eye_left_bone]
38 -24.626970 125.451866 -64.772606 0.000000 -90.000000 -99.840431 143.318359
39 -24.626970 125.451866 -64.772606 0.000000 -90.000000 -99.840431 143.318359
[eye_right_bone]
38 -24.626970 125.451866 64.327362 0.000000 -89.965736 80.156380 143.117676
39 -24.626970 125.451866 64.327362 0.000000 -89.965736 80.156380 143.117676
[L_forearm]
38 322.776093 0.000000 -0.000119 0.000396 -0.002313 -109.450272 322.776093
39 322.776093 0.000000 -0.000119 0.000396 -0.002314 -109.435127 322.776093
[L_front_hand]
38 241.149185 -0.042021 -3.300071 -178.667953 -1.835447 -27.422350 241.171753
39 241.149185 -0.042021 -3.300071 -178.667953 -1.835447 -27.422350 241.171753
[L_weapon_bone]
38 156.183838 0.000000 0.000000 0.000014 0.000007 0.000001 156.183838
39 156.183838 0.000000 0.000000 0.000014 0.000007 0.000001 156.183838
[L_front_hand01_01]
38 86.095154 20.947098 -0.655860 -0.366594 -0.477154 75.385574 88.609184
39 86.095154 20.947098 -0.655860 -0.366594 -0.477154 75.385574 88.609184
[L_front_hand02_01]
38 86.935165 -11.437475 24.513514 154.399796 -59.883835 -61.369587 91.046425
39 86.935165 -11.437475 24.513514 154.399796 -59.883835 -61.369587 91.046425
[L_front_hand03_01]
38 86.637497 -14.123976 -20.424902 -153.913849 58.118122 -62.702866 90.126129
39 86.637497 -14.123976 -20.424902 -153.913849 58.118122 -62.702866 90.126129
[L_front_hand01_02]
38 71.020905 -0.000179 0.000030 0.000334 -0.002323 -106.342621 71.020905
39 71.020905 -0.000179 0.000030 0.000334 -0.002323 -106.358070 71.020905
[L_front_hand02_02]
38 71.020927 -0.000119 0.000060 0.000334 -0.002323 -106.342621 71.020927
39 71.020927 -0.000119 0.000060 0.000334 -0.002323 -106.358070 71.020927
[L_front_hand03_02]
38 71.020905 -0.000060 0.000060 0.000334 -0.002323 -106.342621 71.020905
39 71.020905 -0.000060 0.000060 0.000334 -0.002323 -106.358070 71.020905
[R_forearm]
38 322.776428 -0.000060 0.000030 0.202080 0.065228 -108.102524 322.776428
39 322.776428 -0.000060 0.000030 0.202096 0.065179 -108.075027 322.776428
[R_front_hand]
38 238.847015 -0.006795 2.210259 -2.635298 -10.645461 -26.312506 238.857239
39 238.847015 -0.006795 2.210259 -2.635298 -10.645461 -26.312506 238.857239
[R_weapon_bone]
38 155.664093 0.002503 -0.000030 0.003487 0.001180 -90.988930 155.664078
39 155.664093 0.002503 -0.000030 0.003487 0.001180 -90.988930 155.664078
[R_front_hand01_01]
38 87.624611 14.231146 22.918642 -154.633499 -59.950619 61.746044 91.683487
39 87.624611 14.231146 22.918642 -154.633499 -59.950619 61.746044 91.683487
[R_front_hand02_01]
38 89.356956 14.367283 -19.491137 154.602661 58.302849 63.744389 92.579636
39 89.356956 14.367283 -19.491137 154.602661 58.302849 63.744389 92.579636
[R_front_hand03_01]
38 87.286232 -22.307278 -0.143439 0.162155 -0.423168 -75.767921 90.091743
39 87.286232 -22.307278 -0.143439 0.162155 -0.423168 -75.767921 90.091743
[R_front_hand01_02]
38 71.020905 0.000060 0.000119 0.002323 -0.000334 106.381714 71.020905
39 71.020905 0.000060 0.000119 0.002323 -0.000334 106.381714 71.020905
[R_front_hand02_02]
38 71.020844 -0.000030 -0.000119 0.002323 -0.000334 106.381714 71.020836
39 71.020844 -0.000030 -0.000119 0.002323 -0.000334 106.381714 71.020836
[R_front_hand03_02]
38 71.020905 0.000000 0.000030 0.002323 -0.000334 106.381714 71.020905
39 71.020905 0.000000 0.000030 0.002323 -0.000334 106.381714 71.020905
[null_rope01_connect]
38 328.732483 0.000000 -0.000238 -153.336334 -63.127121 -117.239204 328.732483
39 328.732483 0.000000 -0.000238 -154.258316 -63.954578 -118.057335 328.732483
[Rope1_Seg01]
38 0.000036 -0.000291 -0.000290 60.330551 6.156669 -124.308136 0.000412
39 0.000037 -0.000298 -0.000297 57.633423 5.065744 -123.531250 0.000423
[Rope1_Seg02]
38 139.999863 -0.000179 0.000000 -17.416740 4.809155 3.632379 139.999863
39 139.999863 -0.000179 0.000000 -16.433783 4.952308 3.188080 139.999863
[Rope1_Seg03]
38 139.999924 0.000060 -0.000060 -16.358133 3.946340 4.995780 139.999924
39 139.999924 0.000060 -0.000060 -16.131088 4.315153 4.294993 139.999924
[Rope1_Seg04]
38 139.999924 -0.000060 -0.000119 -13.884002 2.589562 6.817281 139.999924
39 139.999924 -0.000060 -0.000119 -15.034071 3.302293 6.301991 139.999924
[Rope1_Seg05]
38 139.999832 0.000119 -0.000060 -3.000176 -1.547121 4.189371 139.999832
39 139.999832 0.000119 -0.000060 -4.143289 -1.994821 5.624580 139.999832
[Rope1_Seg06]
38 139.999954 0.000119 -0.000060 -0.632141 -1.032544 1.718726 139.999954
39 139.999954 0.000119 -0.000060 -0.929470 -1.432861 2.456914 139.999954
[Rope1_Seg07]
38 139.999985 0.000060 0.000000 -0.735410 -0.470209 1.231269 139.999985
39 139.999985 0.000060 0.000000 -0.837706 -0.625157 1.539506 139.999985
[Rope1_Seg09]
38 121.602913 0.000119 -0.000089 -89.793175 -1.359789 0.847147 121.602913
39 121.602913 0.000119 -0.000089 -89.793175 -1.359789 0.847147 121.602913
[L_mid_hand01]
38 103.859421 1.038730 8.195221 130.544373 -67.584534 -38.866943 104.187431
39 103.859421 1.038730 8.195221 130.544373 -67.584534 -38.866943 104.187431
[L_mid_hand02]
38 105.572853 -4.139662 -10.864139 -168.923172 43.409309 -73.498894 106.211075
39 105.572853 -4.139662 -10.864139 -168.923172 43.409309 -73.498886 106.211075
[L_mid_hand03]
38 104.641464 17.579376 -3.913581 -6.012627 17.808174 74.893669 106.179977
39 104.641464 17.579376 -3.913581 -6.012627 17.808174 74.893669 106.179977
[null_rope02_connect]
38 328.732849 0.000179 -0.000119 -142.584061 65.727905 -42.624287 328.732849
39 328.732849 0.000179 -0.000119 -141.692474 66.953186 -38.657566 328.732849
[Rope2_Seg01]
38 0.000112 -0.000284 0.000000 30.763500 12.133893 -43.378902 0.000305
39 0.000113 -0.000294 0.000000 24.211460 13.416964 -42.565674 0.000316
[Rope2_Seg02]
38 139.999741 -0.000060 -0.000119 34.321438 -14.894450 -6.457314 139.999756
39 139.999741 -0.000060 -0.000119 44.572128 -12.486338 -8.597690 139.999756
[Rope2_Seg03]
38 140.000107 0.000030 0.000000 -0.078130 -11.050700 4.780625 140.000107
39 140.000107 0.000030 0.000000 -0.399212 -10.405916 4.727393 140.000107
[Rope2_Seg04]
38 139.999802 0.000000 -0.000060 3.835262 -8.377951 0.276366 139.999802
39 139.999802 0.000000 -0.000060 5.941790 -9.683589 -0.541857 139.999802
[Rope2_Seg05]
38 139.999985 -0.000060 0.000119 8.369625 -6.919987 -5.618953 139.999985
39 139.999985 -0.000060 0.000119 9.432205 -8.611042 -5.558546 139.999985
[Rope2_Seg06]
38 139.999893 -0.000030 -0.000119 4.379118 -4.942540 -3.070898 139.999893
39 139.999893 -0.000030 -0.000119 3.520027 -5.046710 -1.966317 139.999893
[Rope2_Seg07]
38 139.999893 0.000060 -0.000060 1.832862 -3.132053 -1.102427 139.999893
39 139.999893 0.000060 -0.000060 1.468771 -3.007326 -0.665271 139.999893
[Rope2_Seg09]
38 121.338966 0.000089 -0.000060 33.793236 -1.359788 -0.847141 121.338966
39 121.338966 0.000089 -0.000060 33.793236 -1.359788 -0.847141 121.338966
[R_mid_hand01]
38 104.680779 11.144459 -10.335981 -16.212063 45.237247 70.462852 105.778534
39 104.680779 11.144459 -10.335981 -16.212063 45.237247 70.462852 105.778534
[R_mid_hand02]
38 104.070427 2.443552 8.231699 49.067368 -67.749771 39.286453 104.424065
39 104.070427 2.443552 8.231699 49.067368 -67.749771 39.286453 104.424065
[R_mid_hand03]
38 106.028137 -11.221827 -5.996406 -177.101105 15.551026 -76.585571 106.788818
39 106.028137 -11.221827 -5.996406 -177.101105 15.551026 -76.585571 106.788818
[spine02]
38 129.756927 0.001550 0.000119 0.252306 -4.054604 -11.398346 129.756927
39 129.756927 0.001550 0.000119 0.304446 -4.050178 -12.176290 129.756927
[spine03]
38 78.614189 0.081771 -4.899033 1.897583 3.830750 16.505579 78.766731
39 78.614197 0.081779 -4.899034 1.896662 3.831205 16.478052 78.766739
[pelvis]
38 169.435242 0.051022 0.000000 -0.060571 -0.180190 14.155209 169.435257
39 169.435242 0.051022 0.000000 -0.060489 -0.180217 14.102879 169.435257
[null_rope03_connect]
38 -1.257226 -2.466202 137.391083 166.017624 -89.325653 -105.742043 137.418976
39 -1.257226 -2.466202 137.391083 160.675400 -89.353508 -99.854500 137.418976
[null_rope04_connect]
38 -1.259640 -2.480268 -137.844437 166.017624 -89.325653 -105.742043 137.872513
39 -1.259640 -2.480268 -137.844437 160.675400 -89.353508 -99.854500 137.872513
[Rope3_Seg01]
38 -0.000029 -0.000002 0.000290 -132.813766 20.300434 -81.595093 0.000291
39 -0.000029 -0.000001 0.000297 -133.311966 21.081753 -82.759834 0.000299
[Rope3_Seg02]
38 139.999924 -0.000119 0.000060 0.069406 -1.708588 -2.220371 139.999924
39 139.999924 -0.000119 0.000060 0.063570 -1.545505 -2.022276 139.999924
[Rope3_Seg03]
38 139.999924 -0.000119 0.000119 0.172632 -1.210256 -3.537089 139.999924
39 139.999924 -0.000119 0.000119 0.129611 -1.672164 -3.002928 139.999924
[Rope3_Seg04]
38 139.999924 0.000119 0.000000 0.035093 -1.308505 -2.927103 139.999924
39 139.999924 0.000119 0.000000 0.073698 -1.856577 -3.833661 139.999924
[Rope3_Seg05]
38 139.999924 -0.000238 0.000060 -0.139352 -2.685426 6.221468 139.999924
39 139.999924 -0.000238 0.000060 0.017480 0.020653 5.359792 139.999924
[Rope3_Seg06]
38 139.999893 -0.000119 -0.000060 -0.022652 -1.804313 4.999367 139.999893
39 139.999893 -0.000119 -0.000060 0.082369 0.512484 5.860336 139.999893
[Rope3_Seg07]
38 139.999771 0.000060 -0.000119 0.218356 -1.031653 2.304638 139.999771
39 139.999771 0.000060 -0.000119 0.230969 0.075466 2.652941 139.999771
[Rope3_Seg08]
38 139.999985 -0.000060 0.000000 0.334752 -0.645582 1.453874 139.999985
39 139.999985 -0.000060 0.000000 0.328943 0.056142 1.698264 139.999985
[Rope3_Seg09]
38 90.185997 -0.000179 -0.000060 89.793228 -1.359877 -0.847183 90.185997
39 90.185997 -0.000179 -0.000060 89.793228 -1.359877 -0.847183 90.185997
[R_rear_hand01]
38 103.366196 -6.073594 -10.757982 -177.714203 24.565960 -73.910950 104.101845
39 103.366196 -6.073594 -10.757982 -177.714203 24.565960 -73.910950 104.101845
[R_rear_hand02]
38 100.509819 12.039542 -7.992327 -12.874829 36.868488 72.167213 101.543350
39 100.509819 12.039542 -7.992327 -12.874829 36.868488 72.167213 101.543350
[R_rear_hand03]
38 101.539970 5.215704 5.435467 71.484581 -71.816628 21.513813 101.819031
39 101.539970 5.215704 5.435467 71.484581 -71.816628 21.513813 101.819031
[Rope4_Seg01]
38 0.000010 0.000002 -0.000008 45.307907 25.083286 -114.548042 0.000012
39 0.000010 0.000001 -0.000004 45.001503 27.283731 -114.929993 0.000010
[Rope4_Seg02]
38 139.999985 0.000060 0.000119 0.234164 2.343839 4.345774 139.999985
39 139.999985 0.000060 0.000119 0.215872 2.225664 4.399541 139.999985
[Rope4_Seg03]
38 139.999924 0.000000 -0.000238 0.025884 3.438305 6.331577 139.999924
39 139.999924 0.000000 -0.000238 -0.016758 3.277339 6.451455 139.999924
[Rope4_Seg04]
38 139.999985 0.000000 0.000119 -2.054661 7.575582 18.940096 139.999985
39 139.999985 0.000000 0.000119 -2.408798 8.329169 20.743948 139.999985
[Rope4_Seg05]
38 139.999802 -0.000060 -0.000119 0.901858 4.154392 -0.287327 139.999802
39 139.999802 -0.000060 -0.000119 1.269386 2.286617 -2.174543 139.999802
[Rope4_Seg06]
38 139.999924 0.000000 0.000060 5.062331 -1.639157 -15.455250 139.999924
39 139.999924 0.000000 0.000060 5.727768 -4.237342 -20.262415 139.999924
[Rope4_Seg07]
38 139.999802 0.000000 0.000000 1.088603 -0.226799 -4.081744 139.999802
39 139.999802 0.000000 0.000000 0.839650 -1.290840 -5.376318 139.999802
[Rope4_Seg08]
38 139.999924 0.000000 0.000119 -0.979427 -0.166257 -2.282068 139.999924
39 139.999924 0.000000 0.000119 -1.196726 -0.736233 -2.909139 139.999924
[Rope4_Seg09]
38 90.185791 0.000060 0.000060 -135.617828 2.228885 0.850567 90.185791
39 90.185791 0.000060 0.000060 -135.617828 2.228885 0.850567 90.185791
[L_rear_hand01]
38 101.696655 -8.392275 -7.654577 -12.874829 -36.868488 107.832764 102.329041
39 101.696655 -8.392275 -7.654577 -12.874829 -36.868488 107.832764 102.329041
[L_rear_hand02]
38 102.726799 -1.568258 5.773216 71.484581 71.816628 158.486160 102.900848
39 102.726799 -1.568258 5.773216 71.484581 71.816628 158.486160 102.900848
[L_rear_hand03]
38 104.552910 9.721220 -10.420293 -177.714203 -24.565960 -106.089035 105.519653
39 104.552910 9.721220 -10.420293 -177.714203 -24.565960 -106.089035 105.519653
